<svg width="30" height="30" viewBox="0 0 30 30" fill="none" xmlns="http://www.w3.org/2000/svg">
<g id="git">
<rect id="Rectangle Copy 4" width="30" height="30" rx="2" fill="#333333"/>
<path id="github - FontAwesome Copy" fill-rule="evenodd" clip-rule="evenodd" d="M15.0215 4C21.1063 4 26.043 8.86217 26.043 14.8551C26.043 19.6466 22.8858 23.7172 18.5088 25.1589C17.9491 25.2579 17.7482 24.9186 17.7482 24.636C17.7482 24.2826 17.7625 23.1095 17.7625 21.6536C17.7625 20.636 17.4181 19.9858 17.0163 19.6466C19.4703 19.378 22.0535 18.4593 22.0535 14.2897C22.0535 13.1024 21.6229 12.1413 20.9197 11.3781C21.0345 11.0954 21.4077 9.99291 20.8049 8.49468C19.8865 8.212 17.7769 9.61128 17.7769 9.61128C16.9015 9.371 15.9543 9.24379 15.0215 9.24379C14.0887 9.24379 13.1415 9.371 12.2661 9.61128C12.2661 9.61128 10.1565 8.212 9.23809 8.49468C8.63535 9.99291 9.00847 11.0954 9.12328 11.3781C8.42008 12.1413 7.98956 13.1024 7.98956 14.2897C7.98956 18.4452 10.5584 19.378 13.0124 19.6466C12.6967 19.9293 12.4096 20.4098 12.3092 21.1024C11.6777 21.3851 10.0704 21.8657 9.10893 20.1978C8.50619 19.166 7.41552 19.0812 7.41552 19.0812C6.3392 19.0671 7.34376 19.7455 7.34376 19.7455C8.06131 20.0706 8.56359 21.3286 8.56359 21.3286C9.20938 23.2649 12.2805 22.6148 12.2805 22.6148C12.2805 23.5194 12.2948 24.3674 12.2948 24.636C12.2948 24.9186 12.0939 25.2579 11.5342 25.1589C7.1572 23.7172 4 19.6466 4 14.8551C4 8.86217 8.93672 4 15.0215 4ZM8.17612 19.59C8.14742 19.6466 8.06131 19.6607 7.98956 19.6183C7.90345 19.5759 7.8604 19.5052 7.8891 19.4487C7.9178 19.4063 7.98956 19.3922 8.07566 19.4204C8.16177 19.4628 8.20482 19.5335 8.17612 19.59ZM8.621 20.0706C8.56359 20.1271 8.46314 20.0989 8.39138 20.0282C8.31963 19.9434 8.30528 19.8445 8.36268 19.8021C8.42008 19.7455 8.52054 19.7738 8.59229 19.8445C8.66405 19.9293 8.6784 20.0282 8.621 20.0706ZM9.05152 20.7066C8.99412 20.749 8.87931 20.7066 8.80756 20.6077C8.7358 20.5088 8.7358 20.3957 8.80756 20.3533C8.87931 20.2968 8.99412 20.3392 9.05152 20.4381C9.12328 20.537 9.12328 20.6501 9.05152 20.7066ZM9.65426 21.3003C9.59686 21.371 9.4677 21.3568 9.36724 21.2579C9.26679 21.1731 9.23809 21.0459 9.30984 20.9893C9.36724 20.9187 9.4964 20.9328 9.59686 21.0317C9.68296 21.1165 9.71167 21.2437 9.65426 21.3003ZM10.4723 21.6536C10.4436 21.7384 10.3144 21.7808 10.1996 21.7384C10.0704 21.7102 9.98433 21.6112 10.013 21.5264C10.0417 21.4416 10.1709 21.3992 10.2857 21.4275C10.4149 21.4699 10.501 21.5688 10.4723 21.6536ZM11.3764 21.7243C11.3764 21.8091 11.2759 21.8798 11.1468 21.8798C11.0032 21.8939 10.9028 21.8232 10.9028 21.7243C10.9028 21.6395 11.0032 21.5688 11.1324 21.5688C11.2616 21.5547 11.3764 21.6254 11.3764 21.7243ZM12.2087 21.583C12.2231 21.6678 12.137 21.7526 12.0078 21.7808C11.8787 21.8091 11.7638 21.7526 11.7495 21.6678C11.7351 21.5688 11.8213 21.484 11.9504 21.4558C12.0796 21.4416 12.1944 21.4982 12.2087 21.583Z" fill="white"/>
</g>
</svg>
