<svg width="40" height="40" viewBox="0 0 40 40" fill="none" xmlns="http://www.w3.org/2000/svg">
<g id="hipaa">
<path id="Combined Shape" fill-rule="evenodd" clip-rule="evenodd" d="M4.70065 8.168C3.86235 9.08926 3.13733 10.086 2.48028 11.2338C3.80948 10.7505 5.00274 10.1615 6.11293 9.39131C6.36709 9.21075 6.61993 9.02821 6.87281 8.84564C7.47658 8.40976 8.08059 7.9737 8.70336 7.56389C9.68515 6.91448 10.75 6.54447 11.9584 6.55202C13.3933 6.56712 14.3902 7.20143 14.9113 8.52291C15.1596 9.15362 15.3423 9.81414 15.523 10.4674L15.523 10.4674L15.591 10.7128C15.9611 12.0343 16.671 13.0235 18.0606 13.4086C18.3703 13.4992 18.4987 13.4313 18.4911 13.0839C18.4798 12.3021 18.4812 11.516 18.4826 10.7321V10.7314V10.7307V10.73V10.7293V10.7286V10.7278C18.4831 10.4683 18.4836 10.209 18.4836 9.95011C18.4836 9.89231 18.4703 9.83008 18.4539 9.75327L18.4539 9.75325C18.4489 9.72972 18.4436 9.70482 18.4382 9.67826C17.7444 10.176 17.0806 10.6511 16.417 11.1262L16.4161 11.1268L16.4142 11.1281C16.3689 10.9393 16.3991 10.8185 16.4369 10.7052C16.4668 10.6108 16.4965 10.5163 16.5262 10.4219C16.684 9.91994 16.8416 9.41886 17.026 8.92313C17.1241 8.65883 17.0562 8.51536 16.8372 8.36433C16.5398 8.16259 16.2462 7.94592 15.9537 7.73006L15.9536 7.72998L15.9536 7.72997L15.9536 7.72994L15.9535 7.72989C15.83 7.63878 15.7068 7.54781 15.5835 7.45817C15.3947 7.32225 15.2134 7.18633 14.9415 6.97489C15.0284 6.96929 15.0997 6.96368 15.1611 6.95885C15.2653 6.95066 15.3413 6.94468 15.4173 6.94468C16.0593 6.93713 16.7012 6.92958 17.3432 6.94468C17.5697 6.94468 17.683 6.86917 17.751 6.65018C17.8315 6.38506 17.9196 6.12143 18.0077 5.8573C18.118 5.52711 18.2285 5.19615 18.325 4.86052C18.4156 4.56602 18.4609 4.25642 18.476 3.94681C18.4873 3.69371 18.4854 3.44061 18.4836 3.18846C18.4817 2.93657 18.4798 2.68562 18.4911 2.43655C18.5062 2.10429 18.408 1.96837 18.0682 2.00613C17.72 2.04397 17.3693 2.07169 17.0184 2.09944C16.3187 2.15476 15.618 2.21016 14.934 2.34594C10.886 3.14638 7.47234 5.10972 4.70065 8.168ZM17.119 38.9139L17.1193 38.914C17.408 38.9407 17.697 38.9674 17.9851 39C17.9915 38.9893 17.9973 38.9787 18.003 38.9682C18.0175 38.9415 18.0314 38.916 18.0531 38.8943C17.9713 38.8153 17.8873 38.7374 17.8033 38.6593L17.8032 38.6593L17.8032 38.6592L17.8032 38.6592L17.8031 38.6592L17.8031 38.6591L17.8029 38.659L17.8029 38.659L17.8029 38.6589L17.8028 38.6589L17.8028 38.6589L17.8028 38.6588C17.662 38.5281 17.5208 38.397 17.3885 38.26C17.3093 38.177 17.2277 38.095 17.1459 38.0127L17.1459 38.0127L17.1458 38.0126L17.1458 38.0126L17.1457 38.0125L17.1457 38.0125L17.1455 38.0123L17.1455 38.0123L17.1455 38.0123L17.1455 38.0122L17.1454 38.0122L17.1454 38.0122L17.1454 38.0122C16.8998 37.7652 16.6521 37.5161 16.4595 37.233C15.9158 36.4099 16.1121 35.466 16.9051 34.8694C17.4262 34.4768 17.4111 34.3333 16.958 33.8651C16.452 33.3441 15.9535 32.8079 15.5155 32.2265C15.2134 31.8187 15.0699 31.3279 15.2436 30.7993C15.5231 29.9384 16.1046 29.3041 16.7692 28.7302C17.245 28.3073 17.245 28.2243 16.7314 27.8241C16.5671 27.6936 16.4004 27.5662 16.2339 27.4389L16.2338 27.4388L16.2337 27.4388L16.2336 27.4387L16.2335 27.4386L16.2335 27.4386L16.2334 27.4385L16.2333 27.4385L16.2333 27.4385L16.2333 27.4384L16.2333 27.4384L16.2333 27.4384L16.2333 27.4384C15.8797 27.1681 15.5268 26.8984 15.1983 26.6007C14.4733 25.9287 14.3449 25.1358 14.7603 24.2372C15.1455 23.4216 15.8252 22.9233 16.5955 22.5155C16.6911 22.4651 16.7734 22.388 16.8556 22.3108L16.8556 22.3108C16.8967 22.2722 16.9379 22.2336 16.9807 22.1983C16.9312 22.1572 16.8848 22.111 16.8385 22.0649L16.8385 22.0649L16.8384 22.0649C16.7573 21.9842 16.6765 21.9038 16.5804 21.851C16.2347 21.6551 15.8868 21.4626 15.5389 21.2699C14.9745 20.9576 14.4099 20.645 13.854 20.3181C12.8873 19.7517 12.3133 18.8984 12.1774 17.7733C12.0792 16.9426 12.2076 16.1573 12.9175 15.6362C14.1334 14.7527 16.1726 14.9038 17.1015 16.331C17.245 16.55 17.4338 16.7387 17.6302 16.9124C17.8184 17.0709 18.0163 17.2196 18.207 17.3629L18.207 17.3629L18.2071 17.3629L18.2071 17.3629L18.2071 17.363L18.2071 17.363L18.2071 17.363C18.3071 17.4381 18.4051 17.5118 18.4987 17.5845V16.3612C18.4987 15.9597 18.4987 15.7577 18.5997 15.6561C18.7019 15.5532 18.9077 15.5532 19.3219 15.5532H20.7266C20.4892 15.7725 20.2961 16.0217 20.1048 16.2684C19.8154 16.6419 19.5303 17.0097 19.1028 17.2598C18.4156 17.6675 18.5591 18.5813 19.269 18.838C19.6768 18.9815 20.1224 18.8909 20.4018 18.5435C20.6209 18.2717 20.8021 17.962 20.9758 17.66C21.2099 17.2598 21.5347 16.9879 21.9878 16.8671C22.5467 16.7161 23.03 16.852 23.2793 17.222C23.5587 17.6449 23.5285 18.2112 23.166 18.6568C23.0376 18.8153 22.8865 18.989 22.7128 19.1023L22.5233 19.2263C22.0198 19.5559 21.5143 19.8869 20.9909 20.1821C20.6831 20.3512 20.3627 20.4979 20.0414 20.6451C19.8031 20.7542 19.5642 20.8636 19.3294 20.9826C18.3627 21.4734 18.3401 22.591 19.1935 23.1725C19.2981 23.2449 19.4113 23.3044 19.524 23.3637C19.6227 23.4157 19.721 23.4674 19.8128 23.5274C19.9056 23.5893 20.0004 23.6492 20.0953 23.7091L20.0953 23.7091L20.0954 23.7091L20.0954 23.7091L20.0954 23.7092L20.0954 23.7092L20.0954 23.7092C20.371 23.8833 20.6473 24.0578 20.8776 24.2825C21.361 24.7507 21.3685 25.317 20.938 25.8381C20.7341 26.0873 20.4849 26.3138 20.2281 26.5101C20.049 26.6463 19.8613 26.7722 19.6731 26.8985L19.6731 26.8985L19.6731 26.8985L19.6731 26.8985L19.6731 26.8986L19.673 26.8986L19.673 26.8986L19.673 26.8986L19.673 26.8986L19.6729 26.8987L19.6729 26.8987L19.6729 26.8987L19.6728 26.8987C19.4646 27.0385 19.2559 27.1785 19.0575 27.3332C18.3476 27.8769 18.4836 28.7831 19.1104 29.2513C19.5937 29.6137 20.0393 30.0366 20.4245 30.4897C20.8852 31.0409 20.855 31.5846 20.3867 32.1283C20.2143 32.3273 20.0185 32.5055 19.8222 32.6843L19.8221 32.6843L19.8219 32.6845C19.683 32.811 19.5439 32.9377 19.4125 33.0722C19.1708 33.3139 18.9291 33.5555 18.7479 33.8349C18.408 34.3484 18.5591 34.877 19.0047 35.2243C19.2161 35.3829 19.42 35.5566 19.5937 35.7529C19.9638 36.1758 19.9865 36.4703 19.6768 36.946C19.5632 37.1205 19.4387 37.2884 19.3139 37.4567C19.2063 37.6018 19.0985 37.7472 18.9971 37.8975C18.7857 38.2071 18.6724 38.5318 18.8159 38.9622L18.9292 38.8601L18.9295 38.8598C19.1945 38.621 19.4377 38.4019 19.6693 38.1769C19.7352 38.111 19.8026 38.0459 19.8701 37.9808C20.0731 37.785 20.2771 37.588 20.4472 37.3614C21.1042 36.4779 20.9532 35.5188 20.0695 34.8619C19.6013 34.5145 19.5862 34.288 19.9865 33.8878C20.0307 33.8463 20.077 33.8068 20.1231 33.7675L20.1231 33.7675C20.2029 33.6995 20.282 33.6321 20.349 33.5555C20.4544 33.4336 20.562 33.3128 20.6698 33.1919C20.9558 32.871 21.2425 32.5494 21.4894 32.2038C21.9425 31.5695 21.9501 30.8597 21.5045 30.2254C21.142 29.7043 20.7115 29.2211 20.2583 28.7755C19.7599 28.2922 19.7297 28.2092 20.281 27.7712C20.4797 27.6122 20.6828 27.4591 20.8858 27.306C21.1457 27.11 21.4054 26.9142 21.6555 26.7065C22.6222 25.9136 22.7581 25.0905 22.0407 23.8747C21.6857 23.2857 21.1118 22.9384 20.5227 22.6061C20.386 22.5325 20.2713 22.4223 20.1556 22.3112L20.1555 22.3112L20.1553 22.311C20.1049 22.2625 20.0543 22.2139 20.0016 22.1681C20.0648 22.1181 20.1252 22.0644 20.1854 22.0109L20.1855 22.0109L20.1855 22.0108L20.1855 22.0108L20.1855 22.0108L20.1855 22.0108L20.1855 22.0108C20.2981 21.9108 20.4099 21.8115 20.5378 21.7377C20.8909 21.528 21.2515 21.3295 21.612 21.131C22.277 20.7649 22.9416 20.3989 23.5587 19.9631C25.0314 18.9286 25.258 16.9653 24.1402 15.6513C24.1347 15.6404 24.1372 15.6214 24.1419 15.5859C24.1436 15.5725 24.1457 15.5567 24.1478 15.5381H25.6507C25.5871 15.4651 25.5236 15.398 25.4628 15.3338L25.4628 15.3338C25.3285 15.1921 25.2075 15.0644 25.1296 14.9189C25.0465 14.7678 25.0012 14.4884 25.0842 14.3903C25.1975 14.2619 25.4543 14.2015 25.6431 14.2166C25.7667 14.2215 25.8837 14.2847 26.0028 14.3489C26.0657 14.3828 26.1292 14.417 26.1944 14.4431C26.4295 14.5371 26.6645 14.6326 26.8998 14.7282L26.9013 14.7288L26.9015 14.7289L26.9016 14.7289L26.9017 14.729L26.9019 14.729L26.902 14.7291C27.422 14.9403 27.943 15.1519 28.4677 15.3493C28.6151 15.4039 28.7783 15.4269 28.9402 15.4497C29.0022 15.4585 29.064 15.4672 29.1247 15.4777L29.2153 15.3191C28.7773 14.8962 28.3317 14.4733 27.8861 14.0505C28.2847 14.1563 28.6776 14.2839 29.0701 14.4113L29.0701 14.4113L29.0702 14.4113L29.0702 14.4113L29.0702 14.4113L29.0702 14.4113L29.0702 14.4113C30.1056 14.7475 31.1384 15.0827 32.2665 15.017C32.181 14.9618 32.0947 14.908 32.0083 14.8542C31.4688 14.518 30.9273 14.1806 30.5823 13.4841C30.6589 13.498 30.7255 13.5098 30.785 13.5204L30.7851 13.5204L30.7851 13.5204L30.7853 13.5204C30.9192 13.5441 31.0169 13.5614 31.111 13.5823C31.4502 13.6593 31.7879 13.7401 32.1254 13.8208L32.1254 13.8208C32.8471 13.9935 33.5673 14.1659 34.298 14.2997C34.6304 14.361 34.9801 14.3427 35.3284 14.3245L35.3284 14.3245C35.4945 14.3159 35.6602 14.3072 35.8236 14.3072C35.8236 14.2883 35.8217 14.2713 35.8198 14.2544C35.8179 14.2374 35.816 14.2204 35.816 14.2015C35.6778 14.1538 35.5373 14.1099 35.3967 14.066C35.0917 13.9707 34.7862 13.8752 34.5019 13.7409C34.0735 13.5413 33.643 13.3453 33.2122 13.1491C31.1982 12.2321 29.1805 11.3134 27.3575 10.0256C27.2064 9.9199 27.0478 9.81418 26.8741 9.73867C25.4468 9.09681 24.1931 9.21763 23.4454 10.7505C23.2983 11.0561 23.1493 11.3597 23.0003 11.6633L23.0002 11.6635L23.0001 11.6636L23 11.6638L23 11.664L22.9999 11.6641L22.9998 11.6643L22.9997 11.6644L22.9997 11.6646L22.9996 11.6647L22.9995 11.6649L22.9994 11.665L22.9994 11.6652C22.8504 11.9688 22.7014 12.2724 22.5542 12.578C22.2446 13.2274 21.8141 13.7711 21.1797 14.1411C20.4472 14.564 19.6466 14.7301 18.8159 14.8358C18.5289 14.8736 18.4685 14.7074 18.4911 14.4733C18.5213 14.209 18.4231 14.1335 18.1513 14.0731C16.739 13.7484 15.5155 13.1519 14.8887 11.7247C14.6546 11.1961 14.4129 10.6675 14.1486 10.154C13.28 8.4927 11.8678 7.97921 10.1685 8.757C9.32265 9.14967 8.49945 9.60275 7.75177 10.1464C5.89391 11.4981 3.90011 12.5478 1.68729 13.1896C1.5438 13.2274 1.40031 13.4237 1.33989 13.5747C0.0484476 16.7689 -0.298957 20.0764 0.252359 23.4745C0.879198 27.3861 2.61622 30.7389 5.41057 33.5329C8.18225 36.3117 11.5204 38.0259 15.3871 38.7055C15.9572 38.8064 16.5375 38.8601 17.1188 38.9139L17.119 38.9139ZM40 12.5478C39.4487 13.0084 38.7614 13.3633 37.9458 13.4313C36.4957 13.5521 35.1665 13.0688 33.8524 12.578C32.5157 12.0796 31.2771 11.4075 30.099 10.5844C29.1625 9.92745 28.1807 9.33845 27.1762 8.79476C26.3983 8.37188 25.5525 8.13024 24.6462 8.4625C23.8834 8.7419 23.3321 9.24783 22.9621 9.95011C22.6826 10.4787 22.4258 11.0299 22.1842 11.5812C21.5573 13.0386 20.3414 13.6729 18.8914 13.9976C18.8083 14.0127 18.6422 13.9372 18.6119 13.8692C18.5364 13.6654 18.6648 13.5672 18.8536 13.4917C18.9583 13.4478 19.0646 13.4054 19.1711 13.3629L19.1712 13.3628L19.1712 13.3628L19.1713 13.3628L19.1714 13.3627L19.1715 13.3627C19.541 13.2152 19.9133 13.0666 20.2357 12.8498C20.9003 12.4118 21.2477 11.7171 21.4743 10.962C21.553 10.7025 21.6261 10.4408 21.6992 10.1791L21.6992 10.1789L21.6992 10.1789C21.8155 9.7626 21.9318 9.34615 22.0709 8.93823C22.6902 7.10326 23.9741 6.37078 25.8999 6.65773C27.3575 6.87672 28.5281 7.64696 29.6307 8.51536C31.9946 10.3805 34.6605 11.5812 37.5833 12.2231C38.1572 12.3506 38.7348 12.4108 39.2978 12.4695C39.5349 12.4942 39.7695 12.5187 40 12.5478ZM18.1441 21.1797C18.2532 21.2456 18.3614 21.311 18.4685 21.3752C18.4685 20.4313 18.4685 19.4043 18.4609 18.3547C17.7661 19.2307 16.958 19.1703 16.3689 18.2263C16.2881 18.1007 16.2127 17.9697 16.1378 17.8397L16.1378 17.8396L16.1376 17.8394L16.1376 17.8393L16.1375 17.8393C16.0865 17.7507 16.0358 17.6626 15.9838 17.5769C15.6968 17.1087 15.2587 16.8973 14.7225 16.8822C13.9673 16.8596 13.4991 17.441 13.7785 18.1508C13.9295 18.5284 14.2241 18.9135 14.5564 19.125C15.1328 19.4913 15.7314 19.8166 16.3296 20.1416C16.6562 20.3191 16.9827 20.4965 17.3054 20.6805C17.5868 20.8428 17.8681 21.0129 18.144 21.1796L18.1441 21.1797ZM18.476 22.8251V27.5975C18.3164 27.4817 18.1525 27.3659 17.9868 27.2489L17.9865 27.2487C17.6662 27.0224 17.3395 26.7917 17.026 26.5479C16.7314 26.3214 16.4369 26.0722 16.2028 25.7852C15.8252 25.3397 15.8327 24.7582 16.2556 24.3505C16.486 24.1258 16.7622 23.9513 17.0378 23.7771L17.0379 23.7771L17.0379 23.7771L17.0379 23.7771C17.1328 23.7171 17.2276 23.6572 17.3205 23.5953C17.6981 23.331 18.0908 23.0743 18.476 22.8251ZM21.3872 7.43447C21.5541 7.31053 21.7211 7.18653 21.8896 7.06551C21.8876 7.05929 21.8849 7.05252 21.8822 7.04548L21.8822 7.04543C21.8749 7.02682 21.867 7.00642 21.867 6.98999C21.6574 6.98999 21.4485 6.98712 21.2401 6.98425L21.24 6.98425C20.7727 6.97783 20.3078 6.97143 19.843 6.99754C19.4578 7.0202 19.2917 6.87672 19.1935 6.51426C19.0849 6.107 18.9489 5.70755 18.8137 5.3103L18.8137 5.31025L18.8136 5.30991L18.8135 5.30963C18.7607 5.15467 18.7081 5.00005 18.6573 4.84542C18.5968 6.35568 18.5968 7.84329 18.6044 9.33845C18.6044 9.43662 18.6648 9.56499 18.7403 9.6254C19.1277 9.91231 19.5181 10.1962 19.9307 10.4962C20.1697 10.67 20.4161 10.8492 20.6737 11.0375C20.6216 10.8743 20.5716 10.716 20.523 10.5616L20.5229 10.5614C20.3532 10.023 20.1986 9.53268 20.0167 9.0515C19.8732 8.67393 19.926 8.43984 20.281 8.2133C20.6591 7.9751 21.0229 7.70494 21.3872 7.43447ZM18.476 28.8661V33.7745L18.298 33.6078L18.298 33.6078C17.8694 33.2067 17.4276 32.7933 17.0033 32.3624C16.2254 31.5771 16.2254 30.9805 16.9958 30.1952C17.2015 29.9845 17.4264 29.7961 17.6517 29.6073C17.7737 29.5051 17.8959 29.4027 18.0153 29.2966C18.0908 29.229 18.1663 29.1573 18.2462 29.0814L18.2463 29.0813C18.3182 29.013 18.3937 28.9413 18.476 28.8661ZM18.3709 38.4417C18.4073 38.5247 18.4398 38.5988 18.4685 38.6602V34.9374C18.3723 35.0248 18.2774 35.1084 18.1843 35.1904C17.9557 35.3918 17.7381 35.5836 17.5395 35.7982C17.1846 36.1834 17.1695 36.4401 17.4489 36.8856C17.5259 37.0116 17.6158 37.1278 17.7052 37.2434C17.8088 37.3771 17.9116 37.51 17.9927 37.6559C18.1468 37.9311 18.2729 38.2184 18.3709 38.4417Z" fill="#3978FC"/>
</g>
</svg>
