<svg width="40" height="40" viewBox="0 0 40 40" fill="none" xmlns="http://www.w3.org/2000/svg">
<g id="hosting">
<g id="database">
<path id="Oval" d="M15.0321 8.57141C23.3164 8.57141 30.0321 6.65263 30.0321 4.2857C30.0321 1.91877 23.3164 0 15.0321 0C6.74784 0 0.0321102 1.91877 0.0321102 4.2857C0.0321102 6.65263 6.74784 8.57141 15.0321 8.57141Z" fill="#3978FC"/>
<path id="Shape" fill-rule="evenodd" clip-rule="evenodd" d="M13.875 30.1429C13.5792 30.0795 13.2775 30.0484 12.975 30.05C11.8683 30.0554 10.7988 30.4499 9.95359 31.1641C3.50359 30.4498 0.0321884 28.5713 0.0321884 27.1427V23.8784C1.26734 24.7532 2.65203 25.3947 4.11789 25.7713C4.18266 25.7913 4.25016 25.8009 4.31789 25.7999C4.67406 25.8011 4.97656 25.5395 5.02695 25.1869C5.07734 24.8343 4.86016 24.4986 4.51789 24.3999C1.21078 23.4214 0.0321884 22.2214 0.0321884 21.4285V18.1642C1.26734 19.0389 2.65203 19.6804 4.11789 20.0571C4.18266 20.0771 4.25016 20.0867 4.31789 20.0857C4.67406 20.0868 4.97656 19.8253 5.02695 19.4727C5.07734 19.1201 4.86016 18.7843 4.51789 18.6857C1.21078 17.7072 0.0321884 16.5072 0.0321884 15.7143V12.45C1.26734 13.3247 2.65203 13.9662 4.11789 14.3429C4.18266 14.3629 4.25016 14.3725 4.31789 14.3715C4.67406 14.3726 4.97656 14.1111 5.02695 13.7585C5.07734 13.4059 4.86016 13.0701 4.51789 12.9715C1.21078 11.9929 0.0321884 10.7929 0.0321884 10V6.72864C2.78219 8.87145 9.04649 10 15.0322 10C21.0179 10 27.2822 8.87153 30.0322 6.72864V10.0001C30.0322 11.7929 24.3251 14.2858 15.0322 14.2858C14.3179 14.2858 13.6108 14.2715 12.9179 14.2429C12.6634 14.2318 12.4224 14.3575 12.286 14.5727C12.1497 14.7879 12.1388 15.0595 12.2574 15.2849C12.3761 15.5103 12.6063 15.655 12.8608 15.6643C13.5679 15.7 14.2965 15.7143 15.0322 15.7143C21.0179 15.7143 27.2822 14.5858 30.0322 12.4429V15.7143C30.0322 17.5072 24.3251 20 15.0322 20C14.3179 20 13.6108 19.9857 12.9179 19.9572C12.6634 19.946 12.4224 20.0718 12.286 20.2869C12.1497 20.5021 12.1388 20.7737 12.2574 20.9991C12.3761 21.2245 12.6063 21.3693 12.8608 21.3786C13.5679 21.4143 14.2965 21.4286 15.0322 21.4286C21.0179 21.4286 27.2822 20.3 30.0322 18.1572V21.4286H29.8893C27.3997 21.487 25.1473 22.9198 24.0393 25.15C23.0125 24.454 21.8011 24.0809 20.5607 24.0786C19.0063 24.0861 17.508 24.66 16.3464 25.6929C15.2107 25.7357 14.0321 25.7143 12.9178 25.6714C12.7273 25.6595 12.5401 25.726 12.3998 25.8555C12.2596 25.985 12.1784 26.1663 12.175 26.3572C12.1604 26.7512 12.4668 27.0831 12.8607 27.1C13.5678 27.1286 14.2964 27.1429 15.0321 27.1429H15.0821C14.4819 28.0515 14.0713 29.0718 13.875 30.1429ZM7.30359 13.6286C6.91625 13.5603 6.54641 13.8175 6.4757 14.2044C6.405 14.5914 6.65992 14.9628 7.04649 15.0358C7.96789 15.2001 8.94649 15.343 9.95359 15.4501C9.97938 15.4557 10.0058 15.4581 10.0322 15.4572C10.3966 15.4595 10.7029 15.1841 10.7393 14.8215C10.7611 14.633 10.7071 14.4436 10.5892 14.2949C10.4713 14.1462 10.2992 14.0504 10.1107 14.0286C9.1393 13.9286 8.1893 13.7929 7.30359 13.6286ZM6.4757 19.9187C6.54641 19.5318 6.91625 19.2746 7.30359 19.3429C8.1893 19.5072 9.1393 19.6429 10.1107 19.7429C10.2992 19.7647 10.4713 19.8604 10.5892 20.0092C10.7071 20.1579 10.7611 20.3473 10.7393 20.5358C10.7029 20.8984 10.3966 21.1738 10.0322 21.1715C10.0058 21.1724 9.97938 21.17 9.95359 21.1644C8.94649 21.0573 7.96789 20.9144 7.04649 20.7501C6.65992 20.677 6.405 20.3056 6.4757 19.9187ZM6.76992 25.1698C6.61422 25.2772 6.50805 25.4425 6.475 25.6286C6.40219 26.0172 6.65797 26.3912 7.04649 26.4643C7.96789 26.6286 8.94649 26.7715 9.9536 26.8786C9.97938 26.8842 10.0058 26.8866 10.0322 26.8857C10.3966 26.888 10.7029 26.6126 10.7393 26.25C10.7611 26.0615 10.7071 25.8721 10.5892 25.7234C10.4713 25.5747 10.2992 25.479 10.1107 25.4572C9.1393 25.3572 8.1893 25.2215 7.30359 25.0572C7.11781 25.0219 6.92563 25.0625 6.76992 25.1698Z" fill="#3978FC"/>
<path id="Path" d="M36.3107 31.4785C36.1913 31.4783 36.072 31.4855 35.9536 31.4999C35.7203 31.5427 35.4812 31.4648 35.3179 31.2928C35.1552 31.1216 35.0883 30.8806 35.1393 30.6499C35.2477 30.1428 35.3027 29.6257 35.3036 29.1071C35.3036 25.6571 32.875 22.8571 29.8893 22.8571C27.6514 22.9456 25.6986 24.4018 24.975 26.5214C24.8913 26.7392 24.7057 26.902 24.4787 26.9562C24.2516 27.0105 24.0125 26.9493 23.8393 26.7928C21.9425 25.0431 19.0082 25.084 17.1607 26.8856L17.1464 26.8999C15.9912 28.0187 15.2892 29.5244 15.175 31.1285C15.1559 31.3582 15.0286 31.5651 14.8321 31.6856C14.6335 31.799 14.3938 31.8148 14.1821 31.7285C13.8012 31.5631 13.3902 31.478 12.975 31.4785C10.9607 31.4785 9.31789 33.3928 9.31789 35.7428C9.31789 38.0857 10.9608 39.9999 12.975 39.9999H36.3107C38.325 39.9999 39.9678 38.0856 39.9678 35.7428C39.9679 33.3928 38.325 31.4785 36.3107 31.4785Z" fill="#AFC7FB"/>
</g>
</g>
</svg>
