<svg width="30" height="30" viewBox="0 0 30 30" fill="none" xmlns="http://www.w3.org/2000/svg">
<g id="instagram">
<rect id="Rectangle Copy 3" width="30" height="30" rx="2" fill="#333333"/>
<path id="insta" fill-rule="evenodd" clip-rule="evenodd" d="M25.5727 15.8188C25.5725 15.6416 25.5723 15.4642 25.5723 15.2866C25.5723 15.109 25.5725 14.9316 25.5727 14.7543C25.5742 13.5149 25.5756 12.2831 25.5053 11.041C25.425 9.3937 25.05 7.93388 23.8446 6.72852C22.6393 5.52316 21.1794 5.14816 19.5321 5.0678C18.2901 4.9975 17.0583 4.99895 15.8188 5.00042C15.6416 5.00063 15.4642 5.00084 15.2866 5.00084C15.109 5.00084 14.9315 5.00063 14.7543 5.00042C13.5148 4.99895 12.2831 4.9975 11.041 5.0678C9.3937 5.14816 7.93388 5.52316 6.72852 6.72852C5.52316 7.93388 5.14816 9.3937 5.0678 11.041C4.9975 12.2831 4.99895 13.5148 5.00042 14.7543C5.00063 14.9315 5.00084 15.109 5.00084 15.2866C5.00084 15.4642 5.00063 15.6416 5.00042 15.8188C4.99895 17.0583 4.9975 18.2901 5.0678 19.5321C5.14816 21.1794 5.52316 22.6393 6.72852 23.8446C7.93388 25.05 9.3937 25.425 11.041 25.5053C12.2831 25.5756 13.5149 25.5742 14.7543 25.5727C14.9316 25.5725 15.109 25.5723 15.2866 25.5723C15.4642 25.5723 15.6416 25.5725 15.8188 25.5727C17.0583 25.5742 18.2901 25.5756 19.5321 25.5053C21.1794 25.425 22.6393 25.05 23.8446 23.8446C25.05 22.6393 25.425 21.1794 25.5053 19.5321C25.5756 18.2901 25.5742 17.0583 25.5727 15.8188ZM15.2866 6.84905C15.0765 6.84905 14.8329 6.84669 14.5655 6.8441C12.9229 6.82817 10.3829 6.80353 9.21959 7.26423C8.75084 7.45173 8.40263 7.67941 8.04102 8.04102C7.67941 8.40263 7.45173 8.75084 7.26423 9.21959C6.80353 10.3829 6.82817 12.9229 6.8441 14.5655C6.84669 14.8329 6.84905 15.0765 6.84905 15.2866C6.84905 15.4966 6.84669 15.7402 6.8441 16.0077C6.82817 17.6502 6.80353 20.1903 7.26423 21.3535C7.45173 21.8223 7.67941 22.1705 8.04102 22.5321C8.40263 22.8937 8.75084 23.1214 9.21959 23.3089C10.3829 23.7696 12.9229 23.745 14.5655 23.729C14.8329 23.7264 15.0765 23.7241 15.2866 23.7241C15.4966 23.7241 15.7402 23.7264 16.0077 23.729C17.6502 23.745 20.1903 23.7696 21.3535 23.3089C21.8223 23.1214 22.1705 22.8937 22.5321 22.5321C22.8937 22.1705 23.1214 21.8223 23.3089 21.3535C23.7696 20.1903 23.745 17.6502 23.729 16.0077C23.7264 15.7402 23.7241 15.4966 23.7241 15.2866C23.7241 15.0765 23.7264 14.8329 23.729 14.5655C23.745 12.9229 23.7696 10.3829 23.3089 9.21959C23.1214 8.75084 22.8937 8.40263 22.5321 8.04102C22.1705 7.67941 21.8223 7.45173 21.3535 7.26423C20.1903 6.80353 17.6502 6.82817 16.0077 6.8441C15.7402 6.84669 15.4966 6.84905 15.2866 6.84905ZM20.7776 11.0276C21.4607 11.0276 22.0098 10.4785 22.0098 9.79549C22.0098 9.11245 21.4607 8.56334 20.7776 8.56334C20.0946 8.56334 19.5455 9.11245 19.5455 9.79549C19.5455 10.4785 20.0946 11.0276 20.7776 11.0276ZM20.5634 15.2866C20.5634 18.2062 18.2062 20.5634 15.2866 20.5634C12.3669 20.5634 10.0098 18.2062 10.0098 15.2866C10.0098 12.3669 12.3669 10.0098 15.2866 10.0098C18.2062 10.0098 20.5634 12.3669 20.5634 15.2866ZM18.7151 15.2866C18.7151 13.3982 17.175 11.858 15.2866 11.858C13.3982 11.858 11.858 13.3982 11.858 15.2866C11.858 17.175 13.3982 18.7151 15.2866 18.7151C17.175 18.7151 18.7151 17.175 18.7151 15.2866Z" fill="white"/>
</g>
</svg>
