<svg width="30" height="30" viewBox="0 0 30 30" fill="none" xmlns="http://www.w3.org/2000/svg">
<g id="linkedin">
<rect id="Rectangle Copy 5" width="30" height="30" rx="2" fill="#333333"/>
<path id="linkedin - FontAwesome" fill-rule="evenodd" clip-rule="evenodd" d="M10.8064 12.1607V22.8824H7.20723V12.1607H10.8064ZM11.0355 8.85006C11.0464 9.87786 10.2611 10.7001 9.00683 10.7001H8.98502C7.77438 10.7001 7 9.87786 7 8.85006C7 7.80061 7.8071 7 9.02865 7C10.2611 7 11.0246 7.80061 11.0355 8.85006ZM16.3798 13.6846C16.8532 12.9504 17.7074 11.9118 19.619 11.9118C21.9858 11.9118 23.7527 13.4481 23.7527 16.7371V22.8824H20.1644V17.1483C20.1644 15.7093 19.6409 14.7248 18.343 14.7248C17.3505 14.7248 16.7615 15.3848 16.4997 16.0231C16.4125 16.2611 16.3798 16.5749 16.3798 16.8994V22.8824H12.7915C12.8351 13.1669 12.7915 12.1607 12.7915 12.1607H16.3798V13.6846Z" fill="white"/>
</g>
</svg>
