<svg width="30" height="30" viewBox="0 0 30 30" fill="none" xmlns="http://www.w3.org/2000/svg">
<g id="medium">
<rect id="Rectangle Copy 3" width="30" height="30" rx="2" fill="#333333"/>
<path id="Path" d="M24 10.0002H23.0068C22.7482 10.0002 22.0714 10.2916 22.0714 10.5396V19.5475C22.0714 19.7962 22.7482 20 23.0068 20H24V22H17.5714V20H18.8574V10.6665H18.6336L15.539 22H13.1431L10.0885 10.6665H9.85717V20H11.1426V22H6V20H6.71325C6.99326 20 7.28551 19.7962 7.28551 19.5475V10.5396C7.28551 10.2915 6.9933 10.0002 6.71325 10.0002H6V8H12.6647L14.8408 15.9999H14.8994L17.0969 8H24V10.0002Z" fill="white"/>
</g>
</svg>
