<svg width="30" height="30" viewBox="0 0 30 30" fill="none" xmlns="http://www.w3.org/2000/svg">
<g id="twitter">
<rect id="Rectangle" width="30" height="30" rx="2" fill="#333333"/>
<path id="twitter - FontAwesome" fill-rule="evenodd" clip-rule="evenodd" d="M23.8065 9.61763C23.3387 10.3235 22.7541 10.9522 22.0844 11.4595C22.095 11.614 22.095 11.7684 22.095 11.9228C22.095 16.6323 18.6403 22.0588 12.3262 22.0588C10.3809 22.0588 8.57384 21.4742 7.05377 20.4595C7.33015 20.4926 7.5959 20.5037 7.8829 20.5037C9.48801 20.5037 10.9656 19.9412 12.1455 18.9816C10.636 18.9485 9.37109 17.9228 8.93526 16.511C9.14786 16.5441 9.36046 16.5662 9.58368 16.5662C9.89195 16.5662 10.2002 16.522 10.4872 16.4448C8.914 16.114 7.73408 14.6801 7.73408 12.9485C7.73408 12.9375 7.73408 12.9154 7.73408 12.9044C8.19117 13.1691 8.72266 13.3345 9.28605 13.3566C8.36125 12.7169 7.75534 11.625 7.75534 10.3897C7.75534 9.72793 7.92542 9.12131 8.22306 8.5919C9.91321 10.7537 12.4538 12.1654 15.3026 12.3198C15.2494 12.0551 15.2175 11.7794 15.2175 11.5037C15.2175 9.54043 16.7482 7.94116 18.651 7.94116C19.6395 7.94116 20.5325 8.37131 21.1596 9.06616C21.9356 8.91175 22.6797 8.61396 23.3387 8.20587C23.0836 9.03307 22.5415 9.72793 21.8293 10.1691C22.5202 10.0919 23.1899 9.89337 23.8065 9.61763Z" fill="white"/>
</g>
</svg>
